<svg xmlns="http://www.w3.org/2000/svg" viewBox="0 0 672.69 283.71"><defs><style>.cls-1{fill:#db4c61;}.cls-2{fill:#fff;}</style></defs><g id="Tasarım"><polygon id="Tasarım-2" data-name="Tasarım" class="cls-1" points="660.54 0 578.97 0 578.97 12.14 660.54 12.14 660.54 122.29 672.68 122.29 672.68 12.14 672.68 0 660.54 0"/></g><g id="Frame"><polygon class="cls-2" points="0 214.86 16.54 214.86 16.54 138.57 71.83 138.57 71.83 122.29 16.54 122.29 16.54 61.86 85.97 61.86 85.97 46 0 46 0 214.86"/><path class="cls-2" d="M373.26,470.11a45.37,45.37,0,0,0-.65-14.9c-3.55-16.73-15.73-26.42-19.92-29.46a41.53,41.53,0,0,0-20.29-7.5H266.26V587.11h16.57v-75h39.28l39.43,75h18.29l-40-78.07S371.54,498.39,373.26,470.11Zm-91.72,25.42V434.68h45.57a30.42,30.42,0,0,1,30.43,30.43h0a30.42,30.42,0,0,1-30.43,30.42Z" transform="translate(-166 -372.25)"/><path class="cls-2" d="M506.54,418.25h-21L379.83,587.11h17.43l26.14-42.43H489v42.43h17.77v-2.32h0C507.47,564.54,506.54,418.25,506.54,418.25ZM433.26,528.39l57-87.43v87.43Z" transform="translate(-166 -372.25)"/><polygon class="cls-2" points="441.26 194.29 375.69 46 360.69 46 360.69 214.86 376.11 214.86 376.11 86.29 432.26 214.86 449.4 214.86 503.83 87.57 503.83 214.86 520.11 214.86 520.11 46 504.69 46 441.26 194.29"/><polygon class="cls-2" points="540.26 46 540.26 61.86 540.26 122.5 540.26 138.36 540.26 199 540.26 214.86 540.26 214.86 624.68 214.86 624.68 199 556.11 199 556.11 138.36 610.54 138.36 610.54 122.5 556.11 122.5 556.11 61.86 624.68 61.86 624.68 46 556.11 46 540.26 46"/></g><g id="London"><path class="cls-1" d="M383.79,622.39h4.46v29.27H404v3.71H383.79Z" transform="translate(-166 -372.25)"/><path class="cls-1" d="M432,643.24c0,8.66-6.66,12.72-13.07,12.72-7.14,0-12.58-4.94-12.58-12.18,0-7.69,5.63-12.68,13-12.68C427,631.1,432,636.39,432,643.24Zm-21.1.39c0,5.58,3.72,9,8.22,9s8.32-3.32,8.32-9.25c0-4.11-2.49-9-8.17-9S410.9,638.83,410.9,643.63Z" transform="translate(-166 -372.25)"/><path class="cls-1" d="M437.87,638.2c0-2.35-.1-4.5-.2-6.51h4l.24,4.26H442a9.52,9.52,0,0,1,8.61-4.85c3.23,0,9.2,1.81,9.2,10.77v13.5h-4.45V642.26c0-4.16-1.77-7.49-6.22-7.49a7.12,7.12,0,0,0-6.55,4.6,5.77,5.77,0,0,0-.3,2v14h-4.45Z" transform="translate(-166 -372.25)"/><path class="cls-1" d="M489.94,620.34v28.77c0,2.3.05,4.55.19,6.26h-4l-.24-4.45h-.1c-1.47,2.94-4.7,5-9.06,5-6.26,0-11.2-5-11.2-12,0-7.73,5.28-12.87,11.79-12.87,4.26,0,6.95,2,8.08,3.87h.09V620.34Zm-4.46,21.23a8.67,8.67,0,0,0-.24-2,7.18,7.18,0,0,0-7.15-5.09c-4.89,0-8.07,3.77-8.07,9.15,0,4.74,2.74,8.71,8,8.71a7.43,7.43,0,0,0,7.2-5.53,8.09,8.09,0,0,0,.24-2Z" transform="translate(-166 -372.25)"/><path class="cls-1" d="M521.45,643.24c0,8.66-6.65,12.72-13.06,12.72-7.15,0-12.58-4.94-12.58-12.18,0-7.69,5.63-12.68,13-12.68C516.46,631.1,521.45,636.39,521.45,643.24Zm-21.09.39c0,5.58,3.72,9,8.22,9s8.32-3.32,8.32-9.25c0-4.11-2.5-9-8.17-9S500.36,638.83,500.36,643.63Z" transform="translate(-166 -372.25)"/><path class="cls-1" d="M527.33,638.2c0-2.35-.1-4.5-.2-6.51h4l.25,4.26h.14a9.54,9.54,0,0,1,8.62-4.85c3.23,0,9.2,1.81,9.2,10.77v13.5h-4.46V642.26c0-4.16-1.76-7.49-6.21-7.49a7.14,7.14,0,0,0-6.56,4.6,6,6,0,0,0-.29,2v14h-4.45Z" transform="translate(-166 -372.25)"/><path class="cls-2" d="M568.28,622.83a54.09,54.09,0,0,1,9.11-.73c4.94,0,8.12.93,10.27,2.84a8.09,8.09,0,0,1,2.69,6.21,8.75,8.75,0,0,1-6.55,8.37v.15c2.54.93,4.16,3.32,5,6.41,1.17,4.65,2,7.92,2.74,9.29h-4.6c-.54-.93-1.32-3.67-2.3-7.83-1.08-4.5-3-6.26-7-6.46h-4.89v14.29h-4.41Zm4.41,14.93H578c4.9,0,7.93-2.4,7.93-6.12,0-4.45-3.62-6.17-8.22-6.17a22.58,22.58,0,0,0-5,.45Z" transform="translate(-166 -372.25)"/><path class="cls-2" d="M599.21,644.46c.1,5.34,4.06,8,9,8a18.5,18.5,0,0,0,7.44-1.32l.78,3.18a22.74,22.74,0,0,1-8.81,1.61c-7.78,0-12.63-4.89-12.63-12s4.56-12.87,12.19-12.87c8.66,0,10.72,7.34,10.72,11.4a6.54,6.54,0,0,1-.2,2Zm14.34-3.18c0-2-.93-7-6.75-7-5,0-7.15,4.11-7.54,7Z" transform="translate(-166 -372.25)"/><path class="cls-2" d="M641.69,649.6a34.9,34.9,0,0,0,.39,5.77H638l-.39-3.13h-.15a10.09,10.09,0,0,1-8.07,3.72c-5.34,0-7.79-3.62-7.79-6.8,0-5.68,5.24-9,15.62-8.91v-.39c0-1.52-.45-5.53-5.93-5.48a13,13,0,0,0-6.9,1.91l-1-2.94A16.49,16.49,0,0,1,632,631.1c8.07,0,9.74,5.58,9.74,10.13Zm-4.36-6.26c-5.58-.15-11.15.88-11.15,5.23,0,2.74,2,4.11,4.4,4.11a6.86,6.86,0,0,0,6.51-4.11,4.35,4.35,0,0,0,.24-1.32Z" transform="translate(-166 -372.25)"/><path class="cls-2" d="M649.23,620.34h4.45v35h-4.45Z" transform="translate(-166 -372.25)"/><path class="cls-2" d="M680.25,640H666v11.79h15.91v3.62H661.51v-33h19.57V626H666v10.33h14.29Z" transform="translate(-166 -372.25)"/><path class="cls-2" d="M687.1,650.82a13,13,0,0,0,6.36,1.86c3.48,0,4.95-1.61,4.95-3.57,0-2.15-1.42-3.18-4.85-4.21-4.65-1.42-6.8-3.82-6.8-6.7,0-3.82,3.18-7.1,8.76-7.1a12.48,12.48,0,0,1,6.31,1.57l-1.07,3.23a10.43,10.43,0,0,0-5.44-1.52c-2.74,0-4.2,1.47-4.2,3.33,0,2,1.66,2.93,5,4,4.55,1.42,6.65,3.48,6.65,7.1,0,4-3.28,7.14-9.39,7.14A15.56,15.56,0,0,1,686,654.2Z" transform="translate(-166 -372.25)"/><path class="cls-2" d="M714.21,626v5.68h6.71v3.43h-6.71V647.4c0,2.93.74,4.89,3.53,4.89a8,8,0,0,0,2.79-.39l.24,3.38a11.41,11.41,0,0,1-4.21.68,6.49,6.49,0,0,1-5-2c-1.22-1.37-1.71-3.62-1.71-6.26V635.12h-4v-3.43h4v-4.5Z" transform="translate(-166 -372.25)"/><path class="cls-2" d="M744.36,649.6a34.9,34.9,0,0,0,.39,5.77h-4.06l-.39-3.13h-.15a10.09,10.09,0,0,1-8.07,3.72c-5.34,0-7.79-3.62-7.79-6.8,0-5.68,5.24-9,15.62-8.91v-.39c0-1.52-.45-5.53-5.93-5.48a13,13,0,0,0-6.9,1.91l-1-2.94a16.49,16.49,0,0,1,8.56-2.25c8.07,0,9.74,5.58,9.74,10.13ZM740,643.34c-5.58-.15-11.15.88-11.15,5.23,0,2.74,1.95,4.11,4.4,4.11a6.86,6.86,0,0,0,6.51-4.11,4.35,4.35,0,0,0,.24-1.32Z" transform="translate(-166 -372.25)"/><path class="cls-2" d="M757.08,626v5.68h6.71v3.43h-6.71V647.4c0,2.93.74,4.89,3.53,4.89a8,8,0,0,0,2.79-.39l.24,3.38a11.41,11.41,0,0,1-4.21.68,6.49,6.49,0,0,1-5-2c-1.22-1.37-1.71-3.62-1.71-6.26V635.12h-4v-3.43h4v-4.5Z" transform="translate(-166 -372.25)"/><path class="cls-2" d="M771.27,644.46c.1,5.34,4.07,8,9,8a18.46,18.46,0,0,0,7.44-1.32l.78,3.18a22.7,22.7,0,0,1-8.81,1.61c-7.78,0-12.62-4.89-12.62-12s4.55-12.87,12.18-12.87c8.66,0,10.72,7.34,10.72,11.4a6.54,6.54,0,0,1-.2,2Zm14.34-3.18c0-2-.93-7-6.75-7-5,0-7.15,4.11-7.54,7Z" transform="translate(-166 -372.25)"/></g></svg>